<svg width="90" height="28" viewBox="0 0 90 28" fill="none" xmlns="http://www.w3.org/2000/svg">
  <path d="M0 14C0 6.27 5.37 1 12 1C18.63 1 24 6.27 24 14C24 21.73 18.63 27 12 27C5.37 27 0 21.73 0 14ZM4 14C4 19.52 7.58 23 12 23C16.42 23 20 19.52 20 14C20 8.48 16.42 5 12 5C7.58 5 4 8.48 4 14Z" fill="#0a0a0a"/>
  <path d="M26 7L30 3H34V23H38V27H26V23H30V7H26Z" fill="#0a0a0a"/>
  <path d="M42 3H58V7H46V13H56V17H46V23H58V27H42V3Z" fill="#0a0a0a"/>
  <path d="M62 3H72C76.42 3 80 5.69 80 10C80 12.5 78.5 14.5 76 15.5C79 16.5 81 18.5 81 22C81 26.31 77.42 27 73 27H62V3ZM66 13H71C73.21 13 75 11.88 75 10C75 8.12 73.21 7 71 7H66V13ZM66 23H72C74.76 23 76 21.88 76 20C76 18.12 74.76 17 72 17H66V23Z" fill="#0a0a0a"/>
  <path d="M83 7L87 3H91V23H95V27H83V23H87V7H83Z" fill="#0a0a0a"/>
</svg>
